<?xml version="1.0" encoding="UTF-8"?>
<svg width="127px" height="125px" viewBox="0 0 127 125" version="1.1" xmlns="http://www.w3.org/2000/svg" xmlns:xlink="http://www.w3.org/1999/xlink">
    <!-- Generator: Sketch 56.3 (81716) - https://sketch.com -->
    <title>:D</title>
    <desc>Created with Sketch.</desc>
    <g id="Page-1" stroke="none" strokeWidth="1" fill="none" fillRule="evenodd">
        <g id="Empty-State" transform="translate(-780.000000, -309.000000)">
            <g id=":D" transform="translate(780.000000, 309.000000)">
                <path d="M70.6283039,90.6190449 C70.978772,90.8051159 71.3077601,91.045664 71.6026723,91.3405761 L74.3359616,94.0738655 L75.8800626,95.6179664 C77.2618297,95.6578327 78.6315605,96.2048518 79.6854249,97.2587162 L97.7242033,115.297495 C99.9155498,117.488841 99.9140028,121.044268 97.7240333,123.234237 C95.5326029,125.425668 91.9776872,125.424804 89.7872905,123.234407 L71.7485121,105.195629 C70.6944664,104.141583 70.1477785,102.771938 70.1079508,101.390455 L68.5636614,99.8461657 L65.8303721,97.1128764 L65.8303721,97.1128764 C65.535422,96.8179264 65.2947466,96.4890553 65.1085058,96.1387835 C49.4758022,108.997852 26.3322538,108.122385 11.7222517,93.5123833 C-3.81902111,77.9711105 -3.81902111,52.7737286 11.7222517,37.2324558 C27.2635246,21.691183 52.4609064,21.691183 68.0021792,37.2324558 C82.6122857,51.8425623 83.4876605,74.9863368 70.6283039,90.6190449 L70.6283039,90.6190449 L70.6283039,90.6190449 Z M73.9131247,103.031016 L91.9519031,121.069795 C92.9465293,122.064421 94.5631853,122.06586 95.5594207,121.069625 C96.553629,120.075416 96.5557323,118.458249 95.5595907,117.462107 L77.5208123,99.4233288 C76.5261862,98.4287026 74.9095302,98.4272634 73.9132947,99.4234988 C72.9190864,100.417707 72.9169832,102.034875 73.9131247,103.031016 L73.9131247,103.031016 L73.9131247,103.031016 Z M65.8375666,91.3477707 C80.1833569,77.0019804 80.1833569,53.7428587 65.8375666,39.3970684 C51.4917763,25.0512781 28.2326546,25.0512781 13.8868643,39.3970684 C-0.458925987,53.7428587 -0.458925987,77.0019804 13.8868643,91.3477707 C28.2326546,105.693561 51.4917763,105.693561 65.8375666,91.3477707 L65.8375666,91.3477707 L65.8375666,91.3477707 Z M61.8691102,87.3793143 C49.7150378,99.5333866 30.0093931,99.5333866 17.8553207,87.3793143 C5.7012484,75.2252419 5.7012484,55.5195972 17.8553207,43.3655248 C30.0093931,31.2114525 49.7150378,31.2114525 61.8691102,43.3655248 C74.0231825,55.5195972 74.0231825,75.2252419 61.8691102,87.3793143 L61.8691102,87.3793143 L61.8691102,87.3793143 Z M59.7044976,85.2147017 C70.6630874,74.2561119 70.6630874,56.4887272 59.7044976,45.5301374 C48.7459078,34.5715476 30.9785232,34.5715476 20.0199333,45.5301374 C9.06134352,56.4887272 9.06134352,74.2561119 20.0199333,85.2147017 C30.9785232,96.1732915 48.7459078,96.1732915 59.7044976,85.2147017 L59.7044976,85.2147017 L59.7044976,85.2147017 Z M67.9949847,94.9482638 L70.728274,97.6815531 L72.171349,96.2384781 L69.4380597,93.5051887 C69.0384407,93.1055697 68.3900533,93.1032691 67.9915592,93.5017632 C67.5902868,93.9030357 67.5945986,94.5478778 67.9949847,94.9482638 L67.9949847,94.9482638 L67.9949847,94.9482638 Z M39.7959184,84.6938776 C50.5034798,84.6938776 59.1836735,76.0136839 59.1836735,65.3061224 C59.1836735,64.4607886 59.8689519,63.7755102 60.7142857,63.7755102 C61.5596195,63.7755102 62.244898,64.4607886 62.244898,65.3061224 C62.244898,77.7043515 52.1941474,87.755102 39.7959184,87.755102 C38.9505846,87.755102 38.2653061,87.0698236 38.2653061,86.2244898 C38.2653061,85.379156 38.9505846,84.6938776 39.7959184,84.6938776 L39.7959184,84.6938776 L39.7959184,84.6938776 Z M93.3673469,67.3469388 C94.4944587,67.3469388 95.4081633,66.4332342 95.4081633,65.3061224 C95.4081633,64.1790107 94.4944587,63.2653061 93.3673469,63.2653061 C92.2402352,63.2653061 91.3265306,64.1790107 91.3265306,65.3061224 C91.3265306,66.4332342 92.2402352,67.3469388 93.3673469,67.3469388 L93.3673469,67.3469388 L93.3673469,67.3469388 Z M102.55102,67.3469388 C103.678132,67.3469388 104.591837,66.4332342 104.591837,65.3061224 C104.591837,64.1790107 103.678132,63.2653061 102.55102,63.2653061 C101.423909,63.2653061 100.510204,64.1790107 100.510204,65.3061224 C100.510204,66.4332342 101.423909,67.3469388 102.55102,67.3469388 L102.55102,67.3469388 L102.55102,67.3469388 Z M111.734694,67.3469388 C110.607582,67.3469388 109.693878,66.4332342 109.693878,65.3061224 C109.693878,64.1790107 110.607582,63.2653061 111.734694,63.2653061 C112.861806,63.2653061 113.77551,64.1790107 113.77551,65.3061224 C113.77551,66.4332342 112.861806,67.3469388 111.734694,67.3469388 Z M75.7171386,108.442718 C75.1193973,107.844977 75.1194573,106.875787 75.7150469,106.280197 L80.769993,101.225251 C81.366579,100.628665 82.3359889,100.630818 82.9325139,101.227343 C83.5302551,101.825084 83.5301952,102.794274 82.9346056,103.389864 L77.8796595,108.44481 C77.2830734,109.041396 76.3136635,109.039243 75.7171386,108.442718 Z" id="Shape" fill="#2E384D" fillRule="nonzero"></path>
                <path d="M101.165445,40.8163265 L105.617058,40.8163265 C116.884884,40.8163265 126.020408,31.6792806 126.020408,20.4081633 C126.020408,9.13456771 116.885517,0 105.617058,0 L86.2196769,0 C74.9518511,0 65.8163265,9.13704592 65.8163265,20.4081633 C65.8163265,31.6817588 74.9512177,40.8163265 86.2196769,40.8163265 L90.6712902,40.8163265 L93.754036,43.8990723 C94.9491173,45.0941537 96.8873715,45.0943995 98.0826987,43.8990723 L101.165445,40.8163265 L101.165445,40.8163265 Z M78.3721301,27.6227679 C74.4020847,27.4314404 72.297514,25.2312073 72.0583546,21.0220026 C72.3453458,16.8606297 74.4499166,14.6125654 78.3721301,14.2777423 C82.2465117,14.6125654 84.3510825,16.8606297 84.6859056,21.0220026 C84.3989144,25.2312073 82.2943436,27.4314404 78.3721301,27.6227679 L78.3721301,27.6227679 Z M90.0669643,17.578125 C92.9368766,17.8651162 94.5153047,19.5631222 94.8022959,22.6721939 C94.5631366,25.8290974 92.9847085,27.4792722 90.0669643,27.6227679 C87.1013882,27.4792722 85.5229601,25.8290974 85.3316327,22.6721939 C85.570792,19.5631222 87.1492201,17.8651162 90.0669643,17.578125 L90.0669643,17.578125 Z M95.8785077,29.9186862 L95.8785077,19.1565689 C95.8785077,18.2477633 96.3329036,17.7455362 97.2417092,17.6498724 C97.9591873,17.6977043 98.3896676,18.0803536 98.5331633,18.7978316 C99.011482,18.0325217 99.8485272,17.6259569 101.044324,17.578125 C103.675077,17.7694525 105.110012,19.5152896 105.349171,22.8156888 C105.06218,25.8769286 103.603329,27.4792722 100.972577,27.6227679 C99.9681072,27.574936 99.1549776,27.3118646 98.5331633,26.8335459 L98.5331633,29.9186862 C98.4853314,30.8753237 98.054851,31.3775508 97.2417092,31.4253827 C96.3329036,31.3297189 95.8785077,30.8274918 95.8785077,29.9186862 L95.8785077,29.9186862 Z M113.026148,19.4435587 C112.930484,20.2088686 112.571751,20.6154334 111.949936,20.6632653 C111.758609,20.7110972 111.447706,20.6154349 111.017219,20.3762755 C110.347573,20.0892843 109.869262,19.9218752 109.58227,19.8740434 C108.960456,19.9218752 108.649554,20.161031 108.649554,20.5915179 C108.649554,20.926341 109.151781,21.2850746 110.15625,21.6677296 C112.21302,22.4808714 113.24139,23.4853257 113.24139,24.6811224 C113.050063,26.5943973 111.806453,27.574936 109.510523,27.6227679 C107.262425,27.4792722 106.042731,26.8574672 105.851403,25.7573342 C105.947067,25.0398561 106.3058,24.6332913 106.927615,24.5376276 C107.262438,24.5376276 107.669003,24.7050366 108.147321,25.0398597 C108.721304,25.3268509 109.247447,25.4703444 109.725765,25.4703444 C110.395412,25.5181763 110.73023,25.2551049 110.73023,24.6811224 C110.73023,24.3941312 110.204087,24.0593131 109.151786,23.6766582 C107.142847,22.9113482 106.138393,21.906894 106.138393,20.6632653 C106.234057,18.7499904 107.429835,17.7216206 109.725765,17.578125 C111.782536,17.7694525 112.882652,18.3912575 113.026148,19.4435587 L113.026148,19.4435587 Z M115.178571,22.6004464 L115.178571,15.497449 C115.178571,14.732139 115.632967,14.3255742 116.541773,14.2777423 C117.307083,14.3734061 117.737563,14.7799709 117.833227,15.497449 L117.833227,22.6004464 C117.737563,23.3657564 117.307083,23.7723212 116.541773,23.8201531 C115.680799,23.7723212 115.226403,23.3657564 115.178571,22.6004464 L115.178571,22.6004464 Z M116.541773,27.6227679 C115.632967,27.574936 115.154656,27.1444556 115.106824,26.3313138 C115.154656,25.4703401 115.632967,24.9920285 116.541773,24.8963648 C117.402747,24.9920285 117.881058,25.4703401 117.976722,26.3313138 C117.881058,27.1444556 117.402747,27.574936 116.541773,27.6227679 L116.541773,27.6227679 Z M98.5331633,22.6004464 C98.628827,24.3702257 99.3223787,25.2790176 100.613839,25.3268495 C101.857468,25.2311857 102.55102,24.3463094 102.694515,22.6721939 C102.55102,21.0459102 101.857468,20.1610339 100.613839,20.0175383 C99.3223787,20.113202 98.628827,20.9741628 98.5331633,22.6004464 L98.5331633,22.6004464 Z M90.0669643,20.0175383 C88.7755037,20.113202 88.081952,20.9980784 87.9862883,22.6721939 C88.081952,24.3941413 88.7755037,25.2790176 90.0669643,25.3268495 C91.310593,25.2790176 92.0041447,24.3941413 92.1476403,22.6721939 C92.0041447,20.9980784 91.310593,20.113202 90.0669643,20.0175383 L90.0669643,20.0175383 Z M78.3721301,25.255102 C80.5723962,25.1594383 81.7442595,23.7484192 81.8877551,21.0220026 C81.6964276,18.3434177 80.5245643,16.9323987 78.3721301,16.7889031 C76.171864,16.9323987 75.0239163,18.3434177 74.9282526,21.0220026 C75.0239163,23.7484192 76.171864,25.1594383 78.3721301,25.255102 L78.3721301,25.255102 Z" id="Rectangle-20" fill="#F5A623"></path>
            </g>
        </g>
    </g>
</svg>